<?xml version="1.0" encoding="UTF-8"?>
<!DOCTYPE svg PUBLIC "-//W3C//DTD SVG 1.1//EN" "http://www.w3.org/Graphics/SVG/1.1/DTD/svg11.dtd">
<!-- Creator: CorelDRAW 2019 (64-Bit) -->
<svg xmlns="http://www.w3.org/2000/svg" xml:space="preserve" width="49.3888mm" height="56.4444mm" version="1.1" style="shape-rendering:geometricPrecision; text-rendering:geometricPrecision; image-rendering:optimizeQuality; fill-rule:evenodd; clip-rule:evenodd"
viewBox="0 0 4938.88 5644.44"
 xmlns:xlink="http://www.w3.org/1999/xlink"
 xmlns:xodm="http://www.corel.com/coreldraw/odm/2003">
 <defs>
  <style type="text/css">
   <![CDATA[
    .fil1 {fill:#0165B3}
    .fil2 {fill:#F3842A}
    .fil0 {fill:#0165B3;fill-rule:nonzero}
   ]]>
  </style>
 </defs>
 <g id="Layer_x0020_1">
  <metadata id="CorelCorpID_0Corel-Layer"/>
  <path class="fil0" d="M2469.44 0l-2469.44 1411.11 0 2822.22 2469.44 1411.11 2469.44 -1411.11 0 -2822.22 -2469.44 -1411.11zm-17.5 412.98l2123.04 1213.69 0 2426.57 -2123.04 1213.27 -2123.01 -1213.27 0 -2426.57 2123.01 -1213.69z"/>
  <g id="_2322666961152">
   <path class="fil1" d="M881.13 1954.62l376.63 0 0 1738.71 -376.63 0 0 -1738.71zm1384.78 1251.61c0.3,222.95 -429,319.61 -600.24,14.3 -37.54,26.69 -188.88,185.96 -203.3,228.41 178.43,304.52 898.1,364.43 1106.54,-17.93 159.75,-293.05 -0.92,-547.72 -270.18,-691.32 -114.44,-61.04 -262.85,-103.44 -359.28,-176.47 -124.47,-94.27 -129.1,-252.21 30.68,-317.66 71.7,-29.37 148.18,-27 226.01,-2.7 92.89,29.01 101.14,75.94 160.32,120.76 35.23,-22.65 194.26,-170.13 215.76,-204.4 -87.13,-70.28 -113.13,-116.72 -243.29,-165.02 -634.94,-235.55 -1243.39,459.91 -536.73,857.21 154.14,86.66 473.47,171.93 473.71,354.82zm1388.24 -1251.61l376.63 0 0 175.08c-36.76,25.95 -72.49,51.95 -106.8,77.17 -91.35,67.16 -181.37,136.78 -269.83,208.14l0 -460.39zm376.63 501.04l0 1237.67 -376.63 0 0 -894.68c117.34,-121.43 245.1,-234.55 376.63,-342.99zm-1186.4 -501.04l376.63 0 0 859.82c-24.65,23.64 -49.78,46.8 -75.22,68.44 -59.51,-102.62 -130.84,-221.58 -246.42,-248.76 -16.83,-3.96 -35.44,-5.14 -54.99,-3.96l0 -675.54zm376.63 1321.66l0 417.05 -376.63 0 0 -569.31c44.15,65.67 82.31,137.9 114.35,225.25l20.49 55.87 174.13 -78.68 8.72 -12.51c4.73,-6.81 13.79,-11.33 20.69,-15.48 10.47,-6.31 23.76,-13.84 38.25,-22.19z"/>
   <path class="fil2" d="M3130.44 2966.05c-57.47,-94.93 -130.89,-251.54 -243.74,-278.09 -90.91,-21.38 -219.78,60.11 -248.31,109.52 162.25,171.89 286.24,298.2 372.27,532.74l106.01 -47.89c10.57,-15.17 21.85,-21.81 37.55,-31.26 224.89,-135.37 73.21,-32.03 295.58,-305.85 273.82,-337.16 643.3,-612.47 986.1,-878.89 56.14,-53.48 25.81,-66.37 -10.34,-109.59 -255.35,115.63 -651.83,427.49 -875.71,615.93 -129.73,113.34 -299.92,303.93 -419.41,393.38z"/>
  </g>
 </g>
</svg>
